<?xml version="1.0" encoding="UTF-8" ?>
<svg xmlns="http://www.w3.org/2000/svg" xmlns:xlink="http://www.w3.org/1999/xlink" width="980pt" height="1443pt" viewBox="0.00 0.00 980.00 1442.80">
<g id="graph0" class="graph" transform="scale(1 1) rotate(0) translate(4 1438.8)">
<title>CPP_Learning_Roadmap_2025</title>
<polygon fill="#ffffff" stroke="transparent" points="-4,4 -4,-1438.8 976,-1438.8 976,4 -4,4"/>
<g id="clust2" class="cluster">
<title>cluster_1</title>
<polygon fill="none" stroke="#4caf50" stroke-dasharray="5,2" points="102,-1060.8 102,-1325.2 320,-1325.2 320,-1060.8 102,-1060.8"/>
<text text-anchor="middle" x="211" y="-1308.6" font-family="Times,serif" font-size="14.00" fill="#000000">第1阶段：入门（2-3周）</text>
</g>
<g id="clust3" class="cluster">
<title>cluster_2</title>
<polygon fill="none" stroke="#ff5722" stroke-dasharray="5,2" points="102,-788.4 102,-1052.8 321,-1052.8 321,-788.4 102,-788.4"/>
<text text-anchor="middle" x="211.5" y="-1036.2" font-family="Times,serif" font-size="14.00" fill="#000000">第2阶段：OOP核心（3-4周）</text>
</g>
<g id="clust4" class="cluster">
<title>cluster_3</title>
<polygon fill="none" stroke="#03a9f4" stroke-dasharray="5,2" points="102,-516 102,-780.4 354,-780.4 354,-516 102,-516"/>
<text text-anchor="middle" x="228" y="-763.8" font-family="Times,serif" font-size="14.00" fill="#000000">第3阶段：STL+现代C++（2-3周）</text>
</g>
<g id="clust6" class="cluster">
<title>cluster_5</title>
<polygon fill="none" stroke="#ffa000" stroke-dasharray="5,2" points="535,-114 535,-378.4 768,-378.4 768,-114 535,-114"/>
<text text-anchor="middle" x="651.5" y="-361.8" font-family="Times,serif" font-size="14.00" fill="#000000">第5阶段：面试冲刺（2-3周）</text>
</g>
<!-- Start -->
<g id="node1" class="node">
<title>Start</title>
<path fill="#e8f5e9" stroke="#000000" d="M190,-1427C190,-1427 12,-1427 12,-1427 6,-1427 0,-1421 0,-1415 0,-1415 0,-1353 0,-1353 0,-1347 6,-1341 12,-1341 12,-1341 190,-1341 190,-1341 196,-1341 202,-1347 202,-1353 202,-1353 202,-1415 202,-1415 202,-1421 196,-1427 190,-1427"/>
<text text-anchor="middle" x="101" y="-1395.7" font-family="Microsoft YaHei" font-size="13.00" fill="#000000">开始学习 C++</text>
<text text-anchor="middle" x="101" y="-1380.1" font-family="Microsoft YaHei" font-size="13.00" fill="#000000">选择 IDE + 编译器</text>
<text text-anchor="middle" x="101" y="-1364.5" font-family="Microsoft YaHei" font-size="13.00" fill="#000000">VS / CLion / VSCode + CMake</text>
</g>
<!-- S1 -->
<g id="node2" class="node">
<title>S1</title>
<path fill="#c8e6c9" stroke="#000000" d="M300,-1292.2008C300,-1292.2008 122,-1292.2008 122,-1292.2008 116,-1292.2008 110,-1286.2008 110,-1280.2008 110,-1280.2008 110,-1202.9992 110,-1202.9992 110,-1196.9992 116,-1190.9992 122,-1190.9992 122,-1190.9992 300,-1190.9992 300,-1190.9992 306,-1190.9992 312,-1196.9992 312,-1202.9992 312,-1202.9992 312,-1280.2008 312,-1280.2008 312,-1286.2008 306,-1292.2008 300,-1292.2008"/>
<text text-anchor="middle" x="211" y="-1276.7" font-family="Microsoft YaHei" font-size="13.00" fill="#000000">阶段 1：入门基础</text>
<text text-anchor="middle" x="211" y="-1261.1" font-family="Microsoft YaHei" font-size="13.00" fill="#000000">2-3 周</text>
<text text-anchor="middle" x="211" y="-1245.5" font-family="Microsoft YaHei" font-size="13.00" fill="#000000">变量、函数、数组</text>
<text text-anchor="middle" x="211" y="-1229.9" font-family="Microsoft YaHei" font-size="13.00" fill="#000000">指针/引用入门</text>
<text text-anchor="middle" x="211" y="-1214.3" font-family="Microsoft YaHei" font-size="13.00" fill="#000000">const/static</text>
<text text-anchor="middle" x="211" y="-1198.7" font-family="Microsoft YaHei" font-size="13.00" fill="#000000">CMake 多文件编译</text>
</g>
<!-- Start&#45;&gt;S1 -->
<g id="edge1" class="edge">
<title>Start-&gt;S1</title>
<path fill="none" stroke="#000000" d="M134.3021,-1340.8889C143.725,-1328.6905 154.1598,-1315.1822 164.2193,-1302.1597"/>
<polygon fill="#000000" stroke="#000000" points="167.8037,-1304.39 171.8157,-1292.3258 161.156,-1299.2549 167.8037,-1304.39"/>
</g>
<!-- p1 -->
<g id="node8" class="node">
<title>p1</title>
<path fill="#e8f5e9" stroke="#000000" d="M300,-1154.8C300,-1154.8 122,-1154.8 122,-1154.8 116,-1154.8 110,-1148.8 110,-1142.8 110,-1142.8 110,-1080.8 110,-1080.8 110,-1074.8 116,-1068.8 122,-1068.8 122,-1068.8 300,-1068.8 300,-1068.8 306,-1068.8 312,-1074.8 312,-1080.8 312,-1080.8 312,-1142.8 312,-1142.8 312,-1148.8 306,-1154.8 300,-1154.8"/>
<text text-anchor="middle" x="211" y="-1115.7" font-family="Microsoft YaHei" font-size="13.00" fill="#000000">完成控制台计算器</text>
<text text-anchor="middle" x="211" y="-1100.1" font-family="Microsoft YaHei" font-size="13.00" fill="#000000">+ 猜数字游戏</text>
</g>
<!-- S1&#45;&gt;p1 -->
<g id="edge2" class="edge">
<title>S1-&gt;p1</title>
<path fill="none" stroke="#000000" d="M211,-1190.6721C211,-1182.935 211,-1174.9197 211,-1167.0949"/>
<polygon fill="#000000" stroke="#000000" points="215.2001,-1167.0229 211,-1155.0229 206.8001,-1167.023 215.2001,-1167.0229"/>
</g>
<!-- S2 -->
<g id="node3" class="node">
<title>S2</title>
<path fill="#ffccbc" stroke="#000000" d="M300,-1019.8008C300,-1019.8008 122,-1019.8008 122,-1019.8008 116,-1019.8008 110,-1013.8008 110,-1007.8008 110,-1007.8008 110,-930.5992 110,-930.5992 110,-924.5992 116,-918.5992 122,-918.5992 122,-918.5992 300,-918.5992 300,-918.5992 306,-918.5992 312,-924.5992 312,-930.5992 312,-930.5992 312,-1007.8008 312,-1007.8008 312,-1013.8008 306,-1019.8008 300,-1019.8008"/>
<text text-anchor="middle" x="211" y="-1004.3" font-family="Microsoft YaHei" font-size="13.00" fill="#000000">阶段 2：核心特性（OOP）</text>
<text text-anchor="middle" x="211" y="-988.7" font-family="Microsoft YaHei" font-size="13.00" fill="#000000">3-4 周</text>
<text text-anchor="middle" x="211" y="-973.1" font-family="Microsoft YaHei" font-size="13.00" fill="#000000">类与对象、构造函数</text>
<text text-anchor="middle" x="211" y="-957.5" font-family="Microsoft YaHei" font-size="13.00" fill="#000000">深拷贝、运算符重载</text>
<text text-anchor="middle" x="211" y="-941.9" font-family="Microsoft YaHei" font-size="13.00" fill="#000000">继承、多态、虚函数</text>
<text text-anchor="middle" x="211" y="-926.3" font-family="Microsoft YaHei" font-size="13.00" fill="#000000">模板基础、友元</text>
</g>
<!-- p2 -->
<g id="node9" class="node">
<title>p2</title>
<path fill="#ffccbc" stroke="#000000" d="M300,-882.4C300,-882.4 122,-882.4 122,-882.4 116,-882.4 110,-876.4 110,-870.4 110,-870.4 110,-808.4 110,-808.4 110,-802.4 116,-796.4 122,-796.4 122,-796.4 300,-796.4 300,-796.4 306,-796.4 312,-802.4 312,-808.4 312,-808.4 312,-870.4 312,-870.4 312,-876.4 306,-882.4 300,-882.4"/>
<text text-anchor="middle" x="211" y="-843.3" font-family="Microsoft YaHei" font-size="13.00" fill="#000000">完成学生/图书管理系统</text>
<text text-anchor="middle" x="211" y="-827.7" font-family="Microsoft YaHei" font-size="13.00" fill="#000000">手写深拷贝 + 虚函数</text>
</g>
<!-- S2&#45;&gt;p2 -->
<g id="edge4" class="edge">
<title>S2-&gt;p2</title>
<path fill="none" stroke="#000000" d="M211,-918.2721C211,-910.535 211,-902.5197 211,-894.6949"/>
<polygon fill="#000000" stroke="#000000" points="215.2001,-894.6229 211,-882.6229 206.8001,-894.623 215.2001,-894.6229"/>
</g>
<!-- S3 -->
<g id="node4" class="node">
<title>S3</title>
<path fill="#b3e5fc" stroke="#000000" d="M300,-747.4008C300,-747.4008 122,-747.4008 122,-747.4008 116,-747.4008 110,-741.4008 110,-735.4008 110,-735.4008 110,-658.1992 110,-658.1992 110,-652.1992 116,-646.1992 122,-646.1992 122,-646.1992 300,-646.1992 300,-646.1992 306,-646.1992 312,-652.1992 312,-658.1992 312,-658.1992 312,-735.4008 312,-735.4008 312,-741.4008 306,-747.4008 300,-747.4008"/>
<text text-anchor="middle" x="211" y="-731.9" font-family="Microsoft YaHei" font-size="13.00" fill="#000000">阶段 3：进阶基础</text>
<text text-anchor="middle" x="211" y="-716.3" font-family="Microsoft YaHei" font-size="13.00" fill="#000000">2-3 周</text>
<text text-anchor="middle" x="211" y="-700.7" font-family="Microsoft YaHei" font-size="13.00" fill="#000000">STL 容器（vector/map/set）</text>
<text text-anchor="middle" x="211" y="-685.1" font-family="Microsoft YaHei" font-size="13.00" fill="#000000">迭代器、算法、Lambda</text>
<text text-anchor="middle" x="211" y="-669.5" font-family="Microsoft YaHei" font-size="13.00" fill="#000000">auto、nullptr、范围for</text>
<text text-anchor="middle" x="211" y="-653.9" font-family="Microsoft YaHei" font-size="13.00" fill="#000000">文件IO、异常处理</text>
</g>
<!-- p3 -->
<g id="node10" class="node">
<title>p3</title>
<path fill="#b3e5fc" stroke="#000000" d="M300,-610C300,-610 122,-610 122,-610 116,-610 110,-604 110,-598 110,-598 110,-536 110,-536 110,-530 116,-524 122,-524 122,-524 300,-524 300,-524 306,-524 312,-530 312,-536 312,-536 312,-598 312,-598 312,-604 306,-610 300,-610"/>
<text text-anchor="middle" x="211" y="-570.9" font-family="Microsoft YaHei" font-size="13.00" fill="#000000">完成文件批量重命名工具</text>
<text text-anchor="middle" x="211" y="-555.3" font-family="Microsoft YaHei" font-size="13.00" fill="#000000">或简易日志系统</text>
</g>
<!-- S3&#45;&gt;p3 -->
<g id="edge6" class="edge">
<title>S3-&gt;p3</title>
<path fill="none" stroke="#000000" d="M211,-645.8721C211,-638.135 211,-630.1197 211,-622.2949"/>
<polygon fill="#000000" stroke="#000000" points="215.2001,-622.2229 211,-610.2229 206.8001,-622.223 215.2001,-622.2229"/>
</g>
<!-- S4 -->
<g id="node5" class="node">
<title>S4</title>
<path fill="#d1c4e9" stroke="#000000" d="M300,-487.8008C300,-487.8008 122,-487.8008 122,-487.8008 116,-487.8008 110,-481.8008 110,-475.8008 110,-475.8008 110,-398.5992 110,-398.5992 110,-392.5992 116,-386.5992 122,-386.5992 122,-386.5992 300,-386.5992 300,-386.5992 306,-386.5992 312,-392.5992 312,-398.5992 312,-398.5992 312,-475.8008 312,-475.8008 312,-481.8008 306,-487.8008 300,-487.8008"/>
<text text-anchor="middle" x="211" y="-472.3" font-family="Microsoft YaHei" font-size="13.00" fill="#000000">阶段 4：实战提升</text>
<text text-anchor="middle" x="211" y="-456.7" font-family="Microsoft YaHei" font-size="13.00" fill="#000000">4-6 周</text>
<text text-anchor="middle" x="211" y="-441.1" font-family="Microsoft YaHei" font-size="13.00" fill="#000000">智能指针、RAII</text>
<text text-anchor="middle" x="211" y="-425.5" font-family="Microsoft YaHei" font-size="13.00" fill="#000000">多线程 + 线程池</text>
<text text-anchor="middle" x="211" y="-409.9" font-family="Microsoft YaHei" font-size="13.00" fill="#000000">Socket 网络编程</text>
<text text-anchor="middle" x="211" y="-394.3" font-family="Microsoft YaHei" font-size="13.00" fill="#000000">设计模式 + 工程化</text>
</g>
<!-- p4a -->
<g id="node11" class="node">
<title>p4a</title>
<path fill="#d1c4e9" stroke="#000000" d="M960,-480.2C960,-480.2 782,-480.2 782,-480.2 776,-480.2 770,-474.2 770,-468.2 770,-468.2 770,-406.2 770,-406.2 770,-400.2 776,-394.2 782,-394.2 782,-394.2 960,-394.2 960,-394.2 966,-394.2 972,-400.2 972,-406.2 972,-406.2 972,-468.2 972,-468.2 972,-474.2 966,-480.2 960,-480.2"/>
<text text-anchor="middle" x="871" y="-433.3" font-family="Microsoft YaHei" font-size="13.00" fill="#000000">方向1：高性能线程池</text>
</g>
<!-- S4&#45;&gt;p4a -->
<g id="edge8" class="edge">
<title>S4-&gt;p4a</title>
<path fill="none" stroke="#000000" d="M291.7026,-487.9491C304.1285,-493.7322 317.1198,-498.7205 330,-502 375.4391,-513.5696 706.5609,-513.5696 752,-502 766.4804,-498.313 781.1012,-492.4663 794.9013,-485.7585"/>
<polygon fill="#000000" stroke="#000000" points="796.9885,-489.4089 805.7743,-480.2193 793.1754,-481.9242 796.9885,-489.4089"/>
</g>
<!-- p4b -->
<g id="node12" class="node">
<title>p4b</title>
<path fill="#d1c4e9" stroke="#000000" d="M740,-480.2C740,-480.2 562,-480.2 562,-480.2 556,-480.2 550,-474.2 550,-468.2 550,-468.2 550,-406.2 550,-406.2 550,-400.2 556,-394.2 562,-394.2 562,-394.2 740,-394.2 740,-394.2 746,-394.2 752,-400.2 752,-406.2 752,-406.2 752,-468.2 752,-468.2 752,-474.2 746,-480.2 740,-480.2"/>
<text text-anchor="middle" x="651" y="-433.3" font-family="Microsoft YaHei" font-size="13.00" fill="#000000">方向2：简易 HTTP 服务器</text>
</g>
<!-- S4&#45;&gt;p4b -->
<g id="edge9" class="edge">
<title>S4-&gt;p4b</title>
<path fill="none" stroke="#000000" d="M291.7026,-487.9491C304.1285,-493.7322 317.1198,-498.7205 330,-502 373.5009,-513.0761 488.4991,-513.0761 532,-502 546.4804,-498.313 561.1012,-492.4663 574.9013,-485.7585"/>
<polygon fill="#000000" stroke="#000000" points="576.9885,-489.4089 585.7743,-480.2193 573.1754,-481.9242 576.9885,-489.4089"/>
</g>
<!-- p4c -->
<g id="node13" class="node">
<title>p4c</title>
<path fill="#d1c4e9" stroke="#000000" d="M520,-480.2C520,-480.2 342,-480.2 342,-480.2 336,-480.2 330,-474.2 330,-468.2 330,-468.2 330,-406.2 330,-406.2 330,-400.2 336,-394.2 342,-394.2 342,-394.2 520,-394.2 520,-394.2 526,-394.2 532,-400.2 532,-406.2 532,-406.2 532,-468.2 532,-468.2 532,-474.2 526,-480.2 520,-480.2"/>
<text text-anchor="middle" x="431" y="-433.3" font-family="Microsoft YaHei" font-size="13.00" fill="#000000">方向3：贪吃蛇/打砖块游戏</text>
</g>
<!-- S4&#45;&gt;p4c -->
<g id="edge10" class="edge">
<title>S4-&gt;p4c</title>
<path fill="none" stroke="#000000" d="M312.4063,-437.2C314.1024,-437.2 315.7986,-437.2 317.4948,-437.2"/>
<polygon fill="#000000" stroke="#000000" points="317.5468,-441.4001 329.5468,-437.2 317.5467,-433.0001 317.5468,-441.4001"/>
</g>
<!-- S5 -->
<g id="node6" class="node">
<title>S5</title>
<path fill="#ffecb3" stroke="#000000" d="M740,-345.4008C740,-345.4008 562,-345.4008 562,-345.4008 556,-345.4008 550,-339.4008 550,-333.4008 550,-333.4008 550,-256.1992 550,-256.1992 550,-250.1992 556,-244.1992 562,-244.1992 562,-244.1992 740,-244.1992 740,-244.1992 746,-244.1992 752,-250.1992 752,-256.1992 752,-256.1992 752,-333.4008 752,-333.4008 752,-339.4008 746,-345.4008 740,-345.4008"/>
<text text-anchor="middle" x="651" y="-329.9" font-family="Microsoft YaHei" font-size="13.00" fill="#000000">阶段 5：面试冲刺</text>
<text text-anchor="middle" x="651" y="-314.3" font-family="Microsoft YaHei" font-size="13.00" fill="#000000">2-3 周</text>
<text text-anchor="middle" x="651" y="-298.7" font-family="Microsoft YaHei" font-size="13.00" fill="#000000">高频手撕题</text>
<text text-anchor="middle" x="651" y="-283.1" font-family="Microsoft YaHei" font-size="13.00" fill="#000000">项目复盘</text>
<text text-anchor="middle" x="651" y="-267.5" font-family="Microsoft YaHei" font-size="13.00" fill="#000000">知识点总结</text>
<text text-anchor="middle" x="651" y="-251.9" font-family="Microsoft YaHei" font-size="13.00" fill="#000000">模拟面试</text>
</g>
<!-- resume -->
<g id="node14" class="node">
<title>resume</title>
<path fill="#ffecb3" stroke="#000000" d="M740,-208C740,-208 562,-208 562,-208 556,-208 550,-202 550,-196 550,-196 550,-134 550,-134 550,-128 556,-122 562,-122 562,-122 740,-122 740,-122 746,-122 752,-128 752,-134 752,-134 752,-196 752,-196 752,-202 746,-208 740,-208"/>
<text text-anchor="middle" x="651" y="-168.9" font-family="Microsoft YaHei" font-size="13.00" fill="#000000">完成个人简历</text>
<text text-anchor="middle" x="651" y="-153.3" font-family="Microsoft YaHei" font-size="13.00" fill="#000000">+ 高频面试题</text>
</g>
<!-- S5&#45;&gt;resume -->
<g id="edge14" class="edge">
<title>S5-&gt;resume</title>
<path fill="none" stroke="#000000" d="M651,-243.8721C651,-236.135 651,-228.1197 651,-220.2949"/>
<polygon fill="#000000" stroke="#000000" points="655.2001,-220.2229 651,-208.2229 646.8001,-220.223 655.2001,-220.2229"/>
</g>
<!-- End -->
<g id="node7" class="node">
<title>End</title>
<path fill="#ffab91" stroke="#000000" d="M740,-86C740,-86 562,-86 562,-86 556,-86 550,-80 550,-74 550,-74 550,-12 550,-12 550,-6 556,0 562,0 562,0 740,0 740,0 746,0 752,-6 752,-12 752,-12 752,-74 752,-74 752,-80 746,-86 740,-86"/>
<text text-anchor="middle" x="651" y="-39.1" font-family="Microsoft YaHei" font-size="13.00" fill="#000000">C++ 就业</text>
</g>
<!-- p1&#45;&gt;S2 -->
<g id="edge3" class="edge">
<title>p1-&gt;S2</title>
<path fill="none" stroke="#000000" d="M211,-1068.6283C211,-1057.1314 211,-1044.4725 211,-1032.1508"/>
<polygon fill="#000000" stroke="#000000" points="215.2001,-1031.997 211,-1019.997 206.8001,-1031.9971 215.2001,-1031.997"/>
</g>
<!-- p2&#45;&gt;S3 -->
<g id="edge5" class="edge">
<title>p2-&gt;S3</title>
<path fill="none" stroke="#000000" d="M211,-796.2283C211,-784.7314 211,-772.0725 211,-759.7508"/>
<polygon fill="#000000" stroke="#000000" points="215.2001,-759.597 211,-747.597 206.8001,-759.5971 215.2001,-759.597"/>
</g>
<!-- p3&#45;&gt;S4 -->
<g id="edge7" class="edge">
<title>p3-&gt;S4</title>
<path fill="none" stroke="#000000" d="M211,-523.7785C211,-516.1387 211,-508.046 211,-499.9966"/>
<polygon fill="#000000" stroke="#000000" points="215.2001,-499.8778 211,-487.8778 206.8001,-499.8778 215.2001,-499.8778"/>
</g>
<!-- p4a&#45;&gt;S5 -->
<g id="edge11" class="edge">
<title>p4a-&gt;S5</title>
<path fill="none" stroke="#000000" d="M804.3957,-394.0889C783.9795,-380.874 761.1881,-366.1217 739.5489,-352.1153"/>
<polygon fill="#000000" stroke="#000000" points="741.7246,-348.5205 729.3685,-345.5258 737.1602,-355.5722 741.7246,-348.5205"/>
</g>
<!-- p4b&#45;&gt;S5 -->
<g id="edge12" class="edge">
<title>p4b-&gt;S5</title>
<path fill="none" stroke="#000000" d="M651,-394.0889C651,-382.6081 651,-369.9669 651,-357.6625"/>
<polygon fill="#000000" stroke="#000000" points="655.2001,-357.5258 651,-345.5258 646.8001,-357.5258 655.2001,-357.5258"/>
</g>
<!-- p4c&#45;&gt;S5 -->
<g id="edge13" class="edge">
<title>p4c-&gt;S5</title>
<path fill="none" stroke="#000000" d="M497.6043,-394.0889C518.0205,-380.874 540.8119,-366.1217 562.4511,-352.1153"/>
<polygon fill="#000000" stroke="#000000" points="564.8398,-355.5722 572.6315,-345.5258 560.2754,-348.5205 564.8398,-355.5722"/>
</g>
<!-- resume&#45;&gt;End -->
<g id="edge15" class="edge">
<title>resume-&gt;End</title>
<path fill="none" stroke="#000000" d="M651,-121.9874C651,-114.2428 651,-106.0734 651,-98.043"/>
<polygon fill="#000000" stroke="#000000" points="655.2001,-98.0354 651,-86.0354 646.8001,-98.0355 655.2001,-98.0354"/>
</g>
<!-- tools -->
<g id="node15" class="node">
<title>tools</title>
<polygon fill="#fff9c4" stroke="#000000" points="416,-1434.6008 220,-1434.6008 220,-1333.3992 422,-1333.3992 422,-1428.6008 416,-1434.6008"/>
<polyline fill="none" stroke="#000000" points="416,-1434.6008 416,-1428.6008 "/>
<polyline fill="none" stroke="#000000" points="422,-1428.6008 416,-1428.6008 "/>
<text text-anchor="middle" x="321" y="-1419.1" font-family="Microsoft YaHei" font-size="13.00" fill="#000000">必备工具链</text>
<text text-anchor="middle" x="321" y="-1403.5" font-family="Microsoft YaHei" font-size="13.00" fill="#000000">CMake（多文件）</text>
<text text-anchor="middle" x="321" y="-1387.9" font-family="Microsoft YaHei" font-size="13.00" fill="#000000">Git（版本管理）</text>
<text text-anchor="middle" x="321" y="-1372.3" font-family="Microsoft YaHei" font-size="13.00" fill="#000000">Clang-Format（代码风格）</text>
<text text-anchor="middle" x="321" y="-1356.7" font-family="Microsoft YaHei" font-size="13.00" fill="#000000">Valgrind/GDB（调试）</text>
<text text-anchor="middle" x="321" y="-1341.1" font-family="Microsoft YaHei" font-size="13.00" fill="#000000">GProf（性能分析）</text>
</g>
<!-- tools&#45;&gt;S1 -->
<g id="edge16" class="edge">
<title>tools-&gt;S1</title>
<path fill="none" stroke="#c0c0c0" stroke-dasharray="1,5" d="M281.9084,-1333.3941C274.1401,-1323.3378 265.9086,-1312.6817 257.9105,-1302.3277"/>
<polygon fill="#c0c0c0" stroke="#c0c0c0" points="260.9961,-1299.4517 250.3363,-1292.5227 254.3484,-1304.5869 260.9961,-1299.4517"/>
</g>
</g>
</svg>