<svg xmlns="http://www.w3.org/2000/svg" xmlns:xlink="http://www.w3.org/1999/xlink" width="1738pt" height="594pt" viewBox="0.00 0.00 1738.00 594.00">
<g id="graph0" class="graph" transform="scale(1 1) rotate(0) translate(4 589.6)">
<title>CPlusPlus_Roadmap_2025</title>
<polygon fill="white" stroke="none" points="-4,4 -4,-589.6 1733.6,-589.6 1733.6,4 -4,4"/>
<text xml:space="preserve" text-anchor="start" x="688.65" y="-552" font-family="Times,serif" font-weight="bold" font-size="34.00" fill="#1565c0">C++ 2025 保姆级学习路线图</text>
<!-- Stage0 -->
<g id="node1" class="node">
<title>Stage0</title>
<path fill="#e8f5e8" stroke="#2e7d32" stroke-width="4" d="M226,-536.8C226,-536.8 55.6,-536.8 55.6,-536.8 49.6,-536.8 43.6,-530.8 43.6,-524.8 43.6,-524.8 43.6,-448 43.6,-448 43.6,-442 49.6,-436 55.6,-436 55.6,-436 226,-436 226,-436 232,-436 238,-442 238,-448 238,-448 238,-524.8 238,-524.8 238,-530.8 232,-536.8 226,-536.8"/>
<text xml:space="preserve" text-anchor="middle" x="140.8" y="-503.5" font-family="Helvetica,sans-Serif" font-size="19.00">阶段 0</text>
<text xml:space="preserve" text-anchor="middle" x="140.8" y="-480.7" font-family="Helvetica,sans-Serif" font-size="19.00">准备工作</text>
<text xml:space="preserve" text-anchor="middle" x="140.8" y="-457.9" font-family="Helvetica,sans-Serif" font-size="19.00">0.5–1天</text>
</g>
<!-- Stage1 -->
<g id="node2" class="node">
<title>Stage1</title>
<path fill="#e3f2fd" stroke="#1565c0" stroke-width="4" d="M500,-536.8C500,-536.8 329.6,-536.8 329.6,-536.8 323.6,-536.8 317.6,-530.8 317.6,-524.8 317.6,-524.8 317.6,-448 317.6,-448 317.6,-442 323.6,-436 329.6,-436 329.6,-436 500,-436 500,-436 506,-436 512,-442 512,-448 512,-448 512,-524.8 512,-524.8 512,-530.8 506,-536.8 500,-536.8"/>
<text xml:space="preserve" text-anchor="middle" x="414.8" y="-503.5" font-family="Helvetica,sans-Serif" font-size="19.00">阶段 1</text>
<text xml:space="preserve" text-anchor="middle" x="414.8" y="-480.7" font-family="Helvetica,sans-Serif" font-size="19.00">基础入门</text>
<text xml:space="preserve" text-anchor="middle" x="414.8" y="-457.9" font-family="Helvetica,sans-Serif" font-size="19.00">2–3周</text>
</g>
<!-- Stage0&#45;&gt;Stage1 -->
<g id="edge1" class="edge">
<title>Stage0-&gt;Stage1</title>
<path fill="none" stroke="#1976d2" stroke-width="14" d="M239.8,-486.4C265.1,-486.4 290.39,-486.4 315.68,-486.4"/>
</g>
<!-- S0 -->
<g id="node7" class="node">
<title>S0</title>
<path fill="#c8e6c9" stroke="black" stroke-width="3" d="M225.6,-320.4C225.6,-320.4 12,-320.4 12,-320.4 6,-320.4 0,-314.4 0,-308.4 0,-308.4 0,-231.6 0,-231.6 0,-225.6 6,-219.6 12,-219.6 12,-219.6 225.6,-219.6 225.6,-219.6 231.6,-219.6 237.6,-225.6 237.6,-231.6 237.6,-231.6 237.6,-308.4 237.6,-308.4 237.6,-314.4 231.6,-320.4 225.6,-320.4"/>
<text xml:space="preserve" text-anchor="middle" x="118.8" y="-287.1" font-family="Helvetica,sans-Serif" font-size="19.00">• 编译器 + VSCode</text>
<text xml:space="preserve" text-anchor="middle" x="118.8" y="-264.3" font-family="Helvetica,sans-Serif" font-size="19.00">• Git + CMake</text>
<text xml:space="preserve" text-anchor="middle" x="118.8" y="-241.5" font-family="Helvetica,sans-Serif" font-size="19.00">• 第一个Hello World程序</text>
</g>
<!-- Stage0&#45;&gt;S0 -->
<g id="edge6" class="edge">
<title>Stage0-&gt;S0</title>
<path fill="none" stroke="#2e7d32" stroke-width="5" d="M135.53,-434.05C132.72,-406.63 129.21,-372.46 126.14,-342.49"/>
<polygon fill="#2e7d32" stroke="#2e7d32" stroke-width="5" points="132.68,-342.02 124.63,-327.77 119.63,-343.36 132.68,-342.02"/>
</g>
<!-- Stage2 -->
<g id="node3" class="node">
<title>Stage2</title>
<path fill="#fff3e0" stroke="#ef6c00" stroke-width="4" d="M796,-536.8C796,-536.8 625.6,-536.8 625.6,-536.8 619.6,-536.8 613.6,-530.8 613.6,-524.8 613.6,-524.8 613.6,-448 613.6,-448 613.6,-442 619.6,-436 625.6,-436 625.6,-436 796,-436 796,-436 802,-436 808,-442 808,-448 808,-448 808,-524.8 808,-524.8 808,-530.8 802,-536.8 796,-536.8"/>
<text xml:space="preserve" text-anchor="middle" x="710.8" y="-503.5" font-family="Helvetica,sans-Serif" font-size="19.00">阶段 2</text>
<text xml:space="preserve" text-anchor="middle" x="710.8" y="-480.7" font-family="Helvetica,sans-Serif" font-size="19.00">OOP核心</text>
<text xml:space="preserve" text-anchor="middle" x="710.8" y="-457.9" font-family="Helvetica,sans-Serif" font-size="19.00">3–4周</text>
</g>
<!-- Stage1&#45;&gt;Stage2 -->
<g id="edge2" class="edge">
<title>Stage1-&gt;Stage2</title>
<path fill="none" stroke="#1976d2" stroke-width="14" d="M513.95,-486.4C546.5,-486.4 579.05,-486.4 611.61,-486.4"/>
</g>
<!-- S1 -->
<g id="node8" class="node">
<title>S1</title>
<path fill="#bbdefb" stroke="black" stroke-width="3" d="M521.6,-328C521.6,-328 308,-328 308,-328 302,-328 296,-322 296,-316 296,-316 296,-224 296,-224 296,-218 302,-212 308,-212 308,-212 521.6,-212 521.6,-212 527.6,-212 533.6,-218 533.6,-224 533.6,-224 533.6,-316 533.6,-316 533.6,-322 527.6,-328 521.6,-328"/>
<text xml:space="preserve" text-anchor="middle" x="414.8" y="-307.8" font-family="Helvetica,sans-Serif" font-size="18.00">变量/数据类型/运算符</text>
<text xml:space="preserve" text-anchor="middle" x="414.8" y="-286.2" font-family="Helvetica,sans-Serif" font-size="18.00">循环/分支/函数</text>
<text xml:space="preserve" text-anchor="middle" x="414.8" y="-264.6" font-family="Helvetica,sans-Serif" font-size="18.00">数组/字符串基础</text>
<text xml:space="preserve" text-anchor="middle" x="414.8" y="-243" font-family="Helvetica,sans-Serif" font-size="18.00">Git基础 + 简单CMake</text>
<text xml:space="preserve" text-anchor="middle" x="414.8" y="-221.4" font-family="Helvetica,sans-Serif" font-size="18.00">指针/引用概念（不深入）</text>
</g>
<!-- Stage1&#45;&gt;S1 -->
<g id="edge7" class="edge">
<title>Stage1-&gt;S1</title>
<path fill="none" stroke="#1565c0" stroke-width="5" d="M414.8,-434.05C414.8,-409 414.8,-378.3 414.8,-350.33"/>
<polygon fill="#1565c0" stroke="#1565c0" stroke-width="5" points="421.36,-350.36 414.8,-335.36 408.24,-350.36 421.36,-350.36"/>
</g>
<!-- Stage3 -->
<g id="node4" class="node">
<title>Stage3</title>
<path fill="#f3e5f5" stroke="#7b1fa2" stroke-width="4" d="M1092,-536.8C1092,-536.8 921.6,-536.8 921.6,-536.8 915.6,-536.8 909.6,-530.8 909.6,-524.8 909.6,-524.8 909.6,-448 909.6,-448 909.6,-442 915.6,-436 921.6,-436 921.6,-436 1092,-436 1092,-436 1098,-436 1104,-442 1104,-448 1104,-448 1104,-524.8 1104,-524.8 1104,-530.8 1098,-536.8 1092,-536.8"/>
<text xml:space="preserve" text-anchor="middle" x="1006.8" y="-503.5" font-family="Helvetica,sans-Serif" font-size="19.00">阶段 3</text>
<text xml:space="preserve" text-anchor="middle" x="1006.8" y="-480.7" font-family="Helvetica,sans-Serif" font-size="19.00">STL与现代C++</text>
<text xml:space="preserve" text-anchor="middle" x="1006.8" y="-457.9" font-family="Helvetica,sans-Serif" font-size="19.00">2–3周</text>
</g>
<!-- Stage2&#45;&gt;Stage3 -->
<g id="edge3" class="edge">
<title>Stage2-&gt;Stage3</title>
<path fill="none" stroke="#1976d2" stroke-width="14" d="M809.95,-486.4C842.5,-486.4 875.05,-486.4 907.61,-486.4"/>
</g>
<!-- S2 -->
<g id="node10" class="node">
<title>S2</title>
<path fill="#ffe0b2" stroke="black" stroke-width="3" d="M817.6,-320.4C817.6,-320.4 604,-320.4 604,-320.4 598,-320.4 592,-314.4 592,-308.4 592,-308.4 592,-231.6 592,-231.6 592,-225.6 598,-219.6 604,-219.6 604,-219.6 817.6,-219.6 817.6,-219.6 823.6,-219.6 829.6,-225.6 829.6,-231.6 829.6,-231.6 829.6,-308.4 829.6,-308.4 829.6,-314.4 823.6,-320.4 817.6,-320.4"/>
<text xml:space="preserve" text-anchor="middle" x="710.8" y="-297" font-family="Helvetica,sans-Serif" font-size="18.00">类与对象</text>
<text xml:space="preserve" text-anchor="middle" x="710.8" y="-275.4" font-family="Helvetica,sans-Serif" font-size="18.00">构造/析构/拷贝构造/赋值重载</text>
<text xml:space="preserve" text-anchor="middle" x="710.8" y="-253.8" font-family="Helvetica,sans-Serif" font-size="18.00">继承与多态</text>
<text xml:space="preserve" text-anchor="middle" x="710.8" y="-232.2" font-family="Helvetica,sans-Serif" font-size="18.00">深拷贝vs浅拷贝</text>
</g>
<!-- Stage2&#45;&gt;S2 -->
<g id="edge9" class="edge">
<title>Stage2-&gt;S2</title>
<path fill="none" stroke="#ef6c00" stroke-width="5" d="M710.8,-434.05C710.8,-406.63 710.8,-372.46 710.8,-342.49"/>
<polygon fill="#ef6c00" stroke="#ef6c00" stroke-width="5" points="717.36,-342.8 710.8,-327.8 704.24,-342.8 717.36,-342.8"/>
</g>
<!-- Stage4 -->
<g id="node5" class="node">
<title>Stage4</title>
<path fill="#ffebee" stroke="#c62828" stroke-width="4" d="M1421.6,-536.8C1421.6,-536.8 1208,-536.8 1208,-536.8 1202,-536.8 1196,-530.8 1196,-524.8 1196,-524.8 1196,-448 1196,-448 1196,-442 1202,-436 1208,-436 1208,-436 1421.6,-436 1421.6,-436 1427.6,-436 1433.6,-442 1433.6,-448 1433.6,-448 1433.6,-524.8 1433.6,-524.8 1433.6,-530.8 1427.6,-536.8 1421.6,-536.8"/>
<text xml:space="preserve" text-anchor="middle" x="1314.8" y="-508" font-family="Helvetica,sans-Serif" font-size="24.00">阶段 4</text>
<text xml:space="preserve" text-anchor="middle" x="1314.8" y="-479.2" font-family="Helvetica,sans-Serif" font-size="24.00">实战项目</text>
<text xml:space="preserve" text-anchor="middle" x="1314.8" y="-450.4" font-family="Helvetica,sans-Serif" font-size="24.00">4–6周</text>
</g>
<!-- Stage3&#45;&gt;Stage4 -->
<g id="edge4" class="edge">
<title>Stage3-&gt;Stage4</title>
<path fill="none" stroke="#1976d2" stroke-width="14" d="M1105.76,-486.4C1135.29,-486.4 1164.82,-486.4 1194.36,-486.4"/>
</g>
<!-- S3 -->
<g id="node12" class="node">
<title>S3</title>
<path fill="#e1bee7" stroke="black" stroke-width="3" d="M1113.6,-320.4C1113.6,-320.4 900,-320.4 900,-320.4 894,-320.4 888,-314.4 888,-308.4 888,-308.4 888,-231.6 888,-231.6 888,-225.6 894,-219.6 900,-219.6 900,-219.6 1113.6,-219.6 1113.6,-219.6 1119.6,-219.6 1125.6,-225.6 1125.6,-231.6 1125.6,-231.6 1125.6,-308.4 1125.6,-308.4 1125.6,-314.4 1119.6,-320.4 1113.6,-320.4"/>
<text xml:space="preserve" text-anchor="middle" x="1006.8" y="-287.1" font-family="Helvetica,sans-Serif" font-size="19.00">容器 + 算法</text>
<text xml:space="preserve" text-anchor="middle" x="1006.8" y="-264.3" font-family="Helvetica,sans-Serif" font-size="19.00">Lambda表达式 + 文件IO</text>
<text xml:space="preserve" text-anchor="middle" x="1006.8" y="-241.5" font-family="Helvetica,sans-Serif" font-size="19.00">异常处理 + C++11+特性</text>
</g>
<!-- Stage3&#45;&gt;S3 -->
<g id="edge11" class="edge">
<title>Stage3-&gt;S3</title>
<path fill="none" stroke="#7b1fa2" stroke-width="5" d="M1006.8,-434.05C1006.8,-406.63 1006.8,-372.46 1006.8,-342.49"/>
<polygon fill="#7b1fa2" stroke="#7b1fa2" stroke-width="5" points="1013.36,-342.8 1006.8,-327.8 1000.24,-342.8 1013.36,-342.8"/>
</g>
<!-- Stage5 -->
<g id="node6" class="node">
<title>Stage5</title>
<path fill="#fffde7" stroke="#f9a825" stroke-width="4" d="M1685,-536.8C1685,-536.8 1514.6,-536.8 1514.6,-536.8 1508.6,-536.8 1502.6,-530.8 1502.6,-524.8 1502.6,-524.8 1502.6,-448 1502.6,-448 1502.6,-442 1508.6,-436 1514.6,-436 1514.6,-436 1685,-436 1685,-436 1691,-436 1697,-442 1697,-448 1697,-448 1697,-524.8 1697,-524.8 1697,-530.8 1691,-536.8 1685,-536.8"/>
<text xml:space="preserve" text-anchor="middle" x="1599.8" y="-503.5" font-family="Helvetica,sans-Serif" font-size="19.00">阶段 5</text>
<text xml:space="preserve" text-anchor="middle" x="1599.8" y="-480.7" font-family="Helvetica,sans-Serif" font-size="19.00">面试冲刺</text>
<text xml:space="preserve" text-anchor="middle" x="1599.8" y="-457.9" font-family="Helvetica,sans-Serif" font-size="19.00">2–3周</text>
</g>
<!-- Stage4&#45;&gt;Stage5 -->
<g id="edge5" class="edge">
<title>Stage4-&gt;Stage5</title>
<path fill="none" stroke="#1976d2" stroke-width="14" d="M1435.59,-486.4C1457.29,-486.4 1479,-486.4 1500.7,-486.4"/>
</g>
<!-- S4 -->
<g id="node14" class="node">
<title>S4</title>
<path fill="#ffcdd2" stroke="black" stroke-width="5" d="M1421.6,-327.6C1421.6,-327.6 1208,-327.6 1208,-327.6 1202,-327.6 1196,-321.6 1196,-315.6 1196,-315.6 1196,-224.4 1196,-224.4 1196,-218.4 1202,-212.4 1208,-212.4 1208,-212.4 1421.6,-212.4 1421.6,-212.4 1427.6,-212.4 1433.6,-218.4 1433.6,-224.4 1433.6,-224.4 1433.6,-315.6 1433.6,-315.6 1433.6,-321.6 1427.6,-327.6 1421.6,-327.6"/>
<text xml:space="preserve" text-anchor="middle" x="1314.8" y="-287.1" font-family="Helvetica,sans-Serif" font-size="19.00">智能指针 + 线程池</text>
<text xml:space="preserve" text-anchor="middle" x="1314.8" y="-264.3" font-family="Helvetica,sans-Serif" font-size="19.00">epoll + Socket + 设计模式</text>
<text xml:space="preserve" text-anchor="middle" x="1314.8" y="-241.5" font-family="Helvetica,sans-Serif" font-size="19.00">内存管理与性能优化</text>
</g>
<!-- Stage4&#45;&gt;S4 -->
<g id="edge13" class="edge">
<title>Stage4-&gt;S4</title>
<path fill="none" stroke="#c62828" stroke-width="8" d="M1314.8,-434.05C1314.8,-409.44 1314.8,-379.38 1314.8,-351.81"/>
<polygon fill="#c62828" stroke="#c62828" stroke-width="8" points="1325.3,-351.87 1314.8,-336.87 1304.3,-351.87 1325.3,-351.87"/>
</g>
<!-- S5 -->
<g id="node16" class="node">
<title>S5</title>
<path fill="#fff9c4" stroke="black" stroke-width="3" d="M1717.6,-320.4C1717.6,-320.4 1504,-320.4 1504,-320.4 1498,-320.4 1492,-314.4 1492,-308.4 1492,-308.4 1492,-231.6 1492,-231.6 1492,-225.6 1498,-219.6 1504,-219.6 1504,-219.6 1717.6,-219.6 1717.6,-219.6 1723.6,-219.6 1729.6,-225.6 1729.6,-231.6 1729.6,-231.6 1729.6,-308.4 1729.6,-308.4 1729.6,-314.4 1723.6,-320.4 1717.6,-320.4"/>
<text xml:space="preserve" text-anchor="middle" x="1610.8" y="-275.7" font-family="Helvetica,sans-Serif" font-size="19.00">150+面试题 + 手写代码</text>
<text xml:space="preserve" text-anchor="middle" x="1610.8" y="-252.9" font-family="Helvetica,sans-Serif" font-size="19.00">简历优化 + 面试表达</text>
</g>
<!-- Stage5&#45;&gt;S5 -->
<g id="edge15" class="edge">
<title>Stage5-&gt;S5</title>
<path fill="none" stroke="#f9a825" stroke-width="5" d="M1602.43,-434.05C1603.84,-406.63 1605.59,-372.46 1607.13,-342.49"/>
<polygon fill="#f9a825" stroke="#f9a825" stroke-width="5" points="1613.67,-343.11 1607.89,-327.79 1600.56,-342.44 1613.67,-343.11"/>
</g>
<!-- D1 -->
<g id="node9" class="node">
<title>D1</title>
<path fill="#e3f2ff" stroke="black" stroke-width="4" d="M521.6,-102.4C521.6,-102.4 308,-102.4 308,-102.4 302,-102.4 296,-96.4 296,-90.4 296,-90.4 296,-13.6 296,-13.6 296,-7.6 302,-1.6 308,-1.6 308,-1.6 521.6,-1.6 521.6,-1.6 527.6,-1.6 533.6,-7.6 533.6,-13.6 533.6,-13.6 533.6,-90.4 533.6,-90.4 533.6,-96.4 527.6,-102.4 521.6,-102.4"/>
<text xml:space="preserve" text-anchor="middle" x="414.8" y="-57.7" font-family="Helvetica,sans-Serif" font-size="19.00">计算器 • 猜数字 • 通讯录 </text>
<text xml:space="preserve" text-anchor="middle" x="414.8" y="-34.9" font-family="Helvetica,sans-Serif" font-size="19.00">上传GitHub</text>
</g>
<!-- S1&#45;&gt;D1 -->
<g id="edge8" class="edge">
<title>S1-&gt;D1</title>
<path fill="none" stroke="#1565c0" stroke-width="5" d="M414.8,-210.55C414.8,-184.19 414.8,-152.81 414.8,-125.02"/>
<polygon fill="#1565c0" stroke="#1565c0" stroke-width="5" points="421.36,-125.38 414.8,-110.38 408.24,-125.38 421.36,-125.38"/>
</g>
<!-- D2 -->
<g id="node11" class="node">
<title>D2</title>
<path fill="#fff3e0" stroke="black" stroke-width="4" d="M817.6,-102.4C817.6,-102.4 604,-102.4 604,-102.4 598,-102.4 592,-96.4 592,-90.4 592,-90.4 592,-13.6 592,-13.6 592,-7.6 598,-1.6 604,-1.6 604,-1.6 817.6,-1.6 817.6,-1.6 823.6,-1.6 829.6,-7.6 829.6,-13.6 829.6,-13.6 829.6,-90.4 829.6,-90.4 829.6,-96.4 823.6,-102.4 817.6,-102.4"/>
<text xml:space="preserve" text-anchor="middle" x="710.8" y="-57.7" font-family="Helvetica,sans-Serif" font-size="19.00">学生信息管理系统 </text>
<text xml:space="preserve" text-anchor="middle" x="710.8" y="-34.9" font-family="Helvetica,sans-Serif" font-size="19.00"> 图书管理系统</text>
</g>
<!-- S2&#45;&gt;D2 -->
<g id="edge10" class="edge">
<title>S2-&gt;D2</title>
<path fill="none" stroke="#ef6c00" stroke-width="5" d="M710.8,-218.36C710.8,-190.53 710.8,-155.54 710.8,-124.93"/>
<polygon fill="#ef6c00" stroke="#ef6c00" stroke-width="5" points="717.36,-125.31 710.8,-110.31 704.24,-125.31 717.36,-125.31"/>
</g>
<!-- D3 -->
<g id="node13" class="node">
<title>D3</title>
<path fill="#f3e5f5" stroke="black" stroke-width="4" d="M1113.6,-102.4C1113.6,-102.4 900,-102.4 900,-102.4 894,-102.4 888,-96.4 888,-90.4 888,-90.4 888,-13.6 888,-13.6 888,-7.6 894,-1.6 900,-1.6 900,-1.6 1113.6,-1.6 1113.6,-1.6 1119.6,-1.6 1125.6,-7.6 1125.6,-13.6 1125.6,-13.6 1125.6,-90.4 1125.6,-90.4 1125.6,-96.4 1119.6,-102.4 1113.6,-102.4"/>
<text xml:space="preserve" text-anchor="middle" x="1006.8" y="-57.7" font-family="Helvetica,sans-Serif" font-size="19.00">词频统计工具 </text>
<text xml:space="preserve" text-anchor="middle" x="1006.8" y="-34.9" font-family="Helvetica,sans-Serif" font-size="19.00"> 简易日志系统</text>
</g>
<!-- S3&#45;&gt;D3 -->
<g id="edge12" class="edge">
<title>S3-&gt;D3</title>
<path fill="none" stroke="#7b1fa2" stroke-width="5" d="M1006.8,-218.36C1006.8,-190.53 1006.8,-155.54 1006.8,-124.93"/>
<polygon fill="#7b1fa2" stroke="#7b1fa2" stroke-width="5" points="1013.36,-125.31 1006.8,-110.31 1000.24,-125.31 1013.36,-125.31"/>
</g>
<!-- D4 -->
<g id="node15" class="node">
<title>D4</title>
<path fill="#ffebee" stroke="black" stroke-width="7" d="M1459.8,-104C1459.8,-104 1195.8,-104 1195.8,-104 1189.8,-104 1183.8,-98 1183.8,-92 1183.8,-92 1183.8,-12 1183.8,-12 1183.8,-6 1189.8,0 1195.8,0 1195.8,0 1459.8,0 1459.8,0 1465.8,0 1471.8,-6 1471.8,-12 1471.8,-12 1471.8,-92 1471.8,-92 1471.8,-98 1465.8,-104 1459.8,-104"/>
<text xml:space="preserve" text-anchor="middle" x="1327.8" y="-82" font-family="Helvetica,sans-Serif" font-size="20.00">重点项目（根据自己方向选择）</text>
<text xml:space="preserve" text-anchor="middle" x="1327.8" y="-58" font-family="Helvetica,sans-Serif" font-size="20.00">① 高性能线程池</text>
<text xml:space="preserve" text-anchor="middle" x="1327.8" y="-34" font-family="Helvetica,sans-Serif" font-size="20.00">② 简易HTTP服务器</text>
<text xml:space="preserve" text-anchor="middle" x="1327.8" y="-10" font-family="Helvetica,sans-Serif" font-size="20.00">③ 贪吃蛇/ECS架构游戏</text>
</g>
<!-- S4&#45;&gt;D4 -->
<g id="edge14" class="edge">
<title>S4-&gt;D4</title>
<path fill="none" stroke="#c62828" stroke-width="8" d="M1318.35,-209.98C1319.86,-184.9 1321.64,-155.35 1323.24,-128.69"/>
<polygon fill="#c62828" stroke="#c62828" stroke-width="8" points="1333.7,-129.71 1324.12,-114.1 1312.74,-128.44 1333.7,-129.71"/>
</g>
</g>
</svg>